<?xml version="1.0" encoding="utf-8"?>
<svg viewBox="0 0 249.57479858398438 401.15826416015625" version="1.1" xmlns="http://www.w3.org/2000/svg" x="0px" y="0px">




<g transform="matrix(1, 0, 0, 1, -174.4736785888672, -542.0118775367737)">

		<radialGradient id="SVGID_16_" cx="298.4851" cy="911.98" r="108.0628" gradientTransform="matrix(1 0 0 0.3374 0 604.3235)" gradientUnits="userSpaceOnUse">
		<stop offset="0" style="stop-color:#3C3C3B"/>
		<stop offset="1" style="stop-color:#3C3C3B;stop-opacity:0"/>
	</radialGradient>
	<path d="M 375.900002 912 A 77.400002 26 0 0 1 298.5 938 A 77.400002 26 0 0 1 221.099998 912 A 77.400002 26 0 0 1 298.5 886 A 77.400002 26 0 0 1 375.900002 912 Z" class="st22" style="fill: url('#SVGID_16_');"/>

<g>
		<linearGradient id="SVGID_17_" gradientUnits="userSpaceOnUse" x1="298.4866" y1="900.1729" x2="298.4866" y2="542.6611">
			<stop offset="0" style="stop-color:#5A5A5A"/>
			<stop offset="1" style="stop-color:#777777"/>
		</linearGradient>
		<path class="st23" d="M298.4,542.7c-77.2,0-135.5,69.8-122.1,145.5c12,89.3,64.4,158,122.5,212c56.5-54.8,115.4-122.7,123.3-226.1&#10;&#9;&#9;&#9;C428.2,596.1,364.8,542.7,298.4,542.7z M298.5,738.6c-42.9,0-77.7-34.8-77.7-77.7c0-42.9,34.8-77.7,77.7-77.7&#10;&#9;&#9;&#9;c42.9,0,77.7,34.8,77.7,77.7C376.2,703.8,341.4,738.6,298.5,738.6z" style="fill: url('#SVGID_17_');"/>

		<path class="st24" d="M 298.4 556.8 C 227.29999999999998 556.8 173.7 621 185.99999999999997 690.8 C 197.1 773 245.3 836.3 298.8 886 C 350.8 835.5 405 773 412.4 677.8 C 417.9 606 359.6 556.8 298.4 556.8 Z M 298.5 738.6 C 255.6 738.6 220.8 703.8000000000001 220.8 660.9 C 220.8 618 255.60000000000002 583.1999999999999 298.5 583.1999999999999 C 341.4 583.1999999999999 376.2 617.9999999999999 376.2 660.9 C 376.2 703.8 341.4 738.6 298.5 738.6 Z" />
		<linearGradient id="SVGID_19_" gradientUnits="userSpaceOnUse" x1="298.4865" y1="898.6915" x2="298.4865" y2="544.7077">
			<stop offset="0" style="stop-color:#828282"/>
			<stop offset="1" style="stop-color:#9E9E9E"/>
		</linearGradient>
		<path class="st25" d="M419.7,675c-7.8,101.4-65.5,167.9-120.9,221.6c-56.9-52.9-108.3-120.3-120-207.8&#10;&#9;&#9;&#9;c-13.1-74.3,44-142.7,119.6-142.7C363.5,546.2,425.6,598.6,419.7,675z" style="opacity: 0.6; fill: none; stroke: url('#SVGID_19_'); stroke-width: 2.9809; stroke-miterlimit: 10;"/>
		<path d="M 364.199997 660.900024 A 65.699997 65.699997 0 0 1 298.5 726.600021 A 65.699997 65.699997 0 0 1 232.800003 660.900024 A 65.699997 65.699997 0 0 1 298.5 595.200027 A 65.699997 65.699997 0 0 1 364.199997 660.900024 Z" class="st26" style="fill: none; stroke: rgb(19, 19, 19); stroke-width: 2.4712; stroke-miterlimit: 10;"/>
		<path class="st27" d="M298.5,583.2c-42.9,0-77.7,34.8-77.7,77.7c0,42.9,34.8,77.7,77.7,77.7c42.9,0,77.7-34.8,77.7-77.7&#10;&#9;&#9;&#9;C376.2,618,341.4,583.2,298.5,583.2z M298.5,721.7c-33.6,0-60.8-27.2-60.8-60.8c0-33.6,27.2-60.8,60.8-60.8&#10;&#9;&#9;&#9;c33.6,0,60.8,27.2,60.8,60.8C359.3,694.5,332.1,721.7,298.5,721.7z" style="fill: rgb(87, 87, 87);"/>
		<radialGradient id="SVGID_20_" cx="300.9387" cy="800.7763" r="77.7186" gradientUnits="userSpaceOnUse">
			<stop offset="0" style="stop-color:#ADADAD"/>
			<stop offset="0.7811" style="stop-color:#ABABAB;stop-opacity:0.2189"/>
			<stop offset="1" style="stop-color:#A7A7A7;stop-opacity:0"/>
		</radialGradient>
		<path class="st28" d="M298.5,583.2c-42.9,0-77.7,34.8-77.7,77.7c0,42.9,34.8,77.7,77.7,77.7c42.9,0,77.7-34.8,77.7-77.7&#10;&#9;&#9;&#9;C376.2,618,341.4,583.2,298.5,583.2z M298.5,721.7c-33.6,0-60.8-27.2-60.8-60.8c0-33.6,27.2-60.8,60.8-60.8&#10;&#9;&#9;&#9;c33.6,0,60.8,27.2,60.8,60.8C359.3,694.5,332.1,721.7,298.5,721.7z" style="fill: url('#SVGID_20_');"/>
	</g></g>


</svg>
